{
	"asset":{
		"generator":"Khronos glTF Blender I/O v4.1.63",
		"version":"2.0"
	},
	"scene":0,
	"scenes":[
		{
			"name":"Scene",
			"nodes":[
				0
			]
		}
	],
	"nodes":[
		{
			"mesh":0,
			"name":"Plane.011",
			"rotation":[
				0.7071068286895752,
				0,
				0,
				0.7071068286895752
			],
			"scale":[
				0.7998558282852173,
				1,
				0.028499051928520203
			],
			"translation":[
				0.15003053843975067,
				1.8443512916564941,
				1.0266976356506348
			]
		}
	],
	"materials":[
		{
			"doubleSided":true,
			"name":"Material.002",
			"pbrMetallicRoughness":{
				"baseColorFactor":[
					0.566624641418457,
					0.7861387729644775,
					0.8431257009506226,
					1
				],
				"metallicFactor":0,
				"roughnessFactor":0
			}
		},
		{
			"doubleSided":true,
			"name":"Material.001",
			"pbrMetallicRoughness":{
				"baseColorFactor":[
					0.02877024933695793,
					0.02877024933695793,
					0.02877024933695793,
					1
				],
				"metallicFactor":0,
				"roughnessFactor":0.5
			}
		},
		{
			"doubleSided":true,
			"name":"wall",
			"pbrMetallicRoughness":{
				"baseColorFactor":[
					0.4516962170600891,
					0.4550933837890625,
					0.3095150887966156,
					1
				],
				"metallicFactor":0,
				"roughnessFactor":0.5
			}
		}
	],
	"meshes":[
		{
			"name":"Plane.011",
			"primitives":[
				{
					"attributes":{
						"POSITION":0,
						"NORMAL":1,
						"TEXCOORD_0":2
					},
					"indices":3,
					"material":0
				},
				{
					"attributes":{
						"POSITION":4,
						"NORMAL":5,
						"TEXCOORD_0":6
					},
					"indices":7,
					"material":1
				},
				{
					"attributes":{
						"POSITION":8,
						"NORMAL":9,
						"TEXCOORD_0":10
					},
					"indices":11,
					"material":2
				}
			]
		}
	],
	"accessors":[
		{
			"bufferView":0,
			"componentType":5126,
			"count":96,
			"max":[
				2.864391803741455,
				0.5120012760162354,
				17.704214096069336
			],
			"min":[
				-3.8922410011291504,
				-0.08739620447158813,
				-65.25887298583984
			],
			"type":"VEC3"
		},
		{
			"bufferView":1,
			"componentType":5126,
			"count":96,
			"type":"VEC3"
		},
		{
			"bufferView":2,
			"componentType":5126,
			"count":96,
			"type":"VEC2"
		},
		{
			"bufferView":3,
			"componentType":5123,
			"count":144,
			"type":"SCALAR"
		},
		{
			"bufferView":4,
			"componentType":5126,
			"count":322,
			"max":[
				4.313239097595215,
				2.5733025074005127,
				64.71623992919922
			],
			"min":[
				-4.688383102416992,
				-4.626697540283203,
				-101.82186889648438
			],
			"type":"VEC3"
		},
		{
			"bufferView":5,
			"componentType":5126,
			"count":322,
			"type":"VEC3"
		},
		{
			"bufferView":6,
			"componentType":5126,
			"count":322,
			"type":"VEC2"
		},
		{
			"bufferView":7,
			"componentType":5123,
			"count":666,
			"type":"SCALAR"
		},
		{
			"bufferView":8,
			"componentType":5126,
			"count":192,
			"max":[
				3.1878292560577393,
				0.5120013952255249,
				19.520851135253906
			],
			"min":[
				-4.215678691864014,
				-4.027899742126465,
				-118.94773864746094
			],
			"type":"VEC3"
		},
		{
			"bufferView":9,
			"componentType":5126,
			"count":192,
			"type":"VEC3"
		},
		{
			"bufferView":10,
			"componentType":5126,
			"count":192,
			"type":"VEC2"
		},
		{
			"bufferView":11,
			"componentType":5123,
			"count":474,
			"type":"SCALAR"
		}
	],
	"bufferViews":[
		{
			"buffer":0,
			"byteLength":1152,
			"byteOffset":0,
			"target":34962
		},
		{
			"buffer":0,
			"byteLength":1152,
			"byteOffset":1152,
			"target":34962
		},
		{
			"buffer":0,
			"byteLength":768,
			"byteOffset":2304,
			"target":34962
		},
		{
			"buffer":0,
			"byteLength":288,
			"byteOffset":3072,
			"target":34963
		},
		{
			"buffer":0,
			"byteLength":3864,
			"byteOffset":3360,
			"target":34962
		},
		{
			"buffer":0,
			"byteLength":3864,
			"byteOffset":7224,
			"target":34962
		},
		{
			"buffer":0,
			"byteLength":2576,
			"byteOffset":11088,
			"target":34962
		},
		{
			"buffer":0,
			"byteLength":1332,
			"byteOffset":13664,
			"target":34963
		},
		{
			"buffer":0,
			"byteLength":2304,
			"byteOffset":14996,
			"target":34962
		},
		{
			"buffer":0,
			"byteLength":2304,
			"byteOffset":17300,
			"target":34962
		},
		{
			"buffer":0,
			"byteLength":1536,
			"byteOffset":19604,
			"target":34962
		},
		{
			"buffer":0,
			"byteLength":948,
			"byteOffset":21140,
			"target":34963
		}
	],
	"buffers":[
		{
			"byteLength":22088,
			"uri":"data:application/octet-stream;base64,"
		}
	]
}
