{
	"asset":{
		"generator":"Khronos glTF Blender I/O v4.1.63",
		"version":"2.0"
	},
	"scene":0,
	"scenes":[
		{
			"name":"Scene",
			"nodes":[
				0,
				1,
				2,
				3,
				4,
				5,
				6
			]
		}
	],
	"nodes":[
		{
			"mesh":0,
			"name":"Cube",
			"rotation":[
				-0.01968284882605076,
				0.024557121098041534,
				0.005846561398357153,
				0.999487578868866
			],
			"translation":[
				-1.1089675426483154,
				-0.13343234360218048,
				1.5226694345474243
			]
		},
		{
			"mesh":1,
			"name":"Cube.001",
			"rotation":[
				-0.028597310185432434,
				0.024136357009410858,
				-0.0011610870715230703,
				0.9992989301681519
			],
			"scale":[
				1,
				0.5702916979789734,
				1
			],
			"translation":[
				-3.0942764282226562,
				-0.5754032731056213,
				1.6415510177612305
			]
		},
		{
			"mesh":2,
			"name":"Cylinder",
			"rotation":[
				-0.005735513288527727,
				-0.9993414282798767,
				0.01989772729575634,
				0.029798440635204315
			],
			"scale":[
				0.2500000596046448,
				1.9999998807907104,
				0.2500000596046448
			],
			"translation":[
				-3.258591651916504,
				1.9357500076293945,
				1.4501245021820068
			]
		},
		{
			"mesh":3,
			"name":"Plane",
			"rotation":[
				-0.01968284882605076,
				0.024557121098041534,
				0.005846561398357153,
				0.999487578868866
			],
			"scale":[
				2.0199999809265137,
				1,
				1.0999999046325684
			],
			"translation":[
				-2.208570957183838,
				-1.2495622634887695,
				-0.400265097618103
			]
		},
		{
			"name":"Mball",
			"rotation":[
				-0.01968284882605076,
				0.024557121098041534,
				0.005846560932695866,
				0.999487578868866
			],
			"scale":[
				0.6300003528594971,
				1,
				0.6200002431869507
			],
			"translation":[
				-1.1177787780761719,
				0.7061626315116882,
				1.4498568773269653
			]
		},
		{
			"mesh":4,
			"name":"Plane.001",
			"rotation":[
				0.4863259792327881,
				0.502799391746521,
				0.48755955696105957,
				0.5224610567092896
			],
			"scale":[
				0.4999999701976776,
				1,
				0.20000000298023224
			],
			"translation":[
				-0.9412151575088501,
				-0.6590664982795715,
				0.46294504404067993
			]
		},
		{
			"name":"Circle",
			"translation":[
				-3.530910015106201,
				1.0031318664550781,
				1.872981071472168
			]
		}
	],
	"materials":[
		{
			"doubleSided":true,
			"emissiveFactor":[
				1,
				0.5230335593223572,
				0.01916101761162281
			],
			"name":"Material",
			"pbrMetallicRoughness":{
				"baseColorFactor":[
					0.800000011920929,
					0.800000011920929,
					0.800000011920929,
					0.5
				],
				"metallicFactor":0.5,
				"roughnessFactor":0.5
			}
		},
		{
			"doubleSided":true,
			"name":"Material.002",
			"pbrMetallicRoughness":{}
		},
		{
			"doubleSided":true,
			"name":"Material.004",
			"pbrMetallicRoughness":{
				"baseColorFactor":[
					0.4572567641735077,
					0.8020566701889038,
					0.037332676351070404,
					1
				],
				"metallicFactor":0,
				"roughnessFactor":0.5
			}
		},
		{
			"doubleSided":true,
			"name":"Material.003",
			"pbrMetallicRoughness":{
				"baseColorFactor":[
					0.3253670036792755,
					0.8032644987106323,
					0.07117359340190887,
					1
				],
				"metallicFactor":0,
				"roughnessFactor":0.5
			}
		},
		{
			"doubleSided":true,
			"name":"Material.001",
			"pbrMetallicRoughness":{
				"baseColorFactor":[
					0,
					0,
					0,
					1
				],
				"metallicFactor":0,
				"roughnessFactor":0.5
			}
		}
	],
	"meshes":[
		{
			"name":"Cube",
			"primitives":[
				{
					"attributes":{
						"POSITION":0,
						"NORMAL":1,
						"TEXCOORD_0":2
					},
					"indices":3,
					"material":0
				}
			]
		},
		{
			"name":"Cube.001",
			"primitives":[
				{
					"attributes":{
						"POSITION":4,
						"NORMAL":5,
						"TEXCOORD_0":6
					},
					"indices":7,
					"material":1
				}
			]
		},
		{
			"name":"Cylinder",
			"primitives":[
				{
					"attributes":{
						"POSITION":8,
						"NORMAL":9,
						"TEXCOORD_0":10
					},
					"indices":11,
					"material":2
				}
			]
		},
		{
			"name":"Plane",
			"primitives":[
				{
					"attributes":{
						"POSITION":12,
						"NORMAL":13,
						"TEXCOORD_0":14
					},
					"indices":15,
					"material":3
				}
			]
		},
		{
			"name":"Plane.001",
			"primitives":[
				{
					"attributes":{
						"POSITION":16,
						"NORMAL":17,
						"TEXCOORD_0":18
					},
					"indices":15,
					"material":4
				}
			]
		}
	],
	"accessors":[
		{
			"bufferView":0,
			"componentType":5126,
			"count":24,
			"max":[
				1,
				1,
				1
			],
			"min":[
				-1,
				-1,
				-1
			],
			"type":"VEC3"
		},
		{
			"bufferView":1,
			"componentType":5126,
			"count":24,
			"type":"VEC3"
		},
		{
			"bufferView":2,
			"componentType":5126,
			"count":24,
			"type":"VEC2"
		},
		{
			"bufferView":3,
			"componentType":5123,
			"count":36,
			"type":"SCALAR"
		},
		{
			"bufferView":4,
			"componentType":5126,
			"count":32,
			"max":[
				1.0313448905944824,
				1,
				1.0313448905944824
			],
			"min":[
				-1.0313448905944824,
				-1,
				-1.0313448905944824
			],
			"type":"VEC3"
		},
		{
			"bufferView":5,
			"componentType":5126,
			"count":32,
			"type":"VEC3"
		},
		{
			"bufferView":6,
			"componentType":5126,
			"count":32,
			"type":"VEC2"
		},
		{
			"bufferView":7,
			"componentType":5123,
			"count":60,
			"type":"SCALAR"
		},
		{
			"bufferView":8,
			"componentType":5126,
			"count":192,
			"max":[
				1,
				1,
				1
			],
			"min":[
				-1,
				-1,
				-1
			],
			"type":"VEC3"
		},
		{
			"bufferView":9,
			"componentType":5126,
			"count":192,
			"type":"VEC3"
		},
		{
			"bufferView":10,
			"componentType":5126,
			"count":192,
			"type":"VEC2"
		},
		{
			"bufferView":11,
			"componentType":5123,
			"count":372,
			"type":"SCALAR"
		},
		{
			"bufferView":12,
			"componentType":5126,
			"count":4,
			"max":[
				1,
				0,
				1
			],
			"min":[
				-1,
				0,
				-1
			],
			"type":"VEC3"
		},
		{
			"bufferView":13,
			"componentType":5126,
			"count":4,
			"type":"VEC3"
		},
		{
			"bufferView":14,
			"componentType":5126,
			"count":4,
			"type":"VEC2"
		},
		{
			"bufferView":15,
			"componentType":5123,
			"count":6,
			"type":"SCALAR"
		},
		{
			"bufferView":16,
			"componentType":5126,
			"count":4,
			"max":[
				1,
				0,
				1
			],
			"min":[
				-1,
				0,
				-1
			],
			"type":"VEC3"
		},
		{
			"bufferView":17,
			"componentType":5126,
			"count":4,
			"type":"VEC3"
		},
		{
			"bufferView":18,
			"componentType":5126,
			"count":4,
			"type":"VEC2"
		}
	],
	"bufferViews":[
		{
			"buffer":0,
			"byteLength":288,
			"byteOffset":0,
			"target":34962
		},
		{
			"buffer":0,
			"byteLength":288,
			"byteOffset":288,
			"target":34962
		},
		{
			"buffer":0,
			"byteLength":192,
			"byteOffset":576,
			"target":34962
		},
		{
			"buffer":0,
			"byteLength":72,
			"byteOffset":768,
			"target":34963
		},
		{
			"buffer":0,
			"byteLength":384,
			"byteOffset":840,
			"target":34962
		},
		{
			"buffer":0,
			"byteLength":384,
			"byteOffset":1224,
			"target":34962
		},
		{
			"buffer":0,
			"byteLength":256,
			"byteOffset":1608,
			"target":34962
		},
		{
			"buffer":0,
			"byteLength":120,
			"byteOffset":1864,
			"target":34963
		},
		{
			"buffer":0,
			"byteLength":2304,
			"byteOffset":1984,
			"target":34962
		},
		{
			"buffer":0,
			"byteLength":2304,
			"byteOffset":4288,
			"target":34962
		},
		{
			"buffer":0,
			"byteLength":1536,
			"byteOffset":6592,
			"target":34962
		},
		{
			"buffer":0,
			"byteLength":744,
			"byteOffset":8128,
			"target":34963
		},
		{
			"buffer":0,
			"byteLength":48,
			"byteOffset":8872,
			"target":34962
		},
		{
			"buffer":0,
			"byteLength":48,
			"byteOffset":8920,
			"target":34962
		},
		{
			"buffer":0,
			"byteLength":32,
			"byteOffset":8968,
			"target":34962
		},
		{
			"buffer":0,
			"byteLength":12,
			"byteOffset":9000,
			"target":34963
		},
		{
			"buffer":0,
			"byteLength":48,
			"byteOffset":9012,
			"target":34962
		},
		{
			"buffer":0,
			"byteLength":48,
			"byteOffset":9060,
			"target":34962
		},
		{
			"buffer":0,
			"byteLength":32,
			"byteOffset":9108,
			"target":34962
		}
	],
	"buffers":[
		{
			"byteLength":9140,
			"uri":"mosque.bin"
		}
	]
}
