<svg width="647" height="865" viewBox="0 0 647 865" fill="none" xmlns="http://www.w3.org/2000/svg">
  <g id="Al Buraymi">
<path fill-rule="evenodd" clip-rule="evenodd" d="M364.364 219.113L364.402 217.602C364.402 214.956 360.887 215.523 360.32 212.235C360.017 210.458 360.055 208.757 359.904 206.943C359.753 205.167 358.468 203.428 357.296 202.143C355.633 200.291 354.159 198.402 354.877 195.794C355.633 192.997 355.331 194.509 354.991 191.485V191.334C355.482 187.592 357.712 188.499 359.035 186.836C360.206 185.324 359.828 184.266 359.413 182.754C358.808 180.6 355.898 179.353 353.894 178.861C352.307 178.483 351.324 178.672 350.568 177.236C349.586 175.384 349.283 169.224 348.717 168.543C348.187 167.901 347.356 163.781 347.696 163.29C348.754 161.816 349.132 162.723 350.228 162.95C352.383 163.365 351.324 161.74 350.795 160.758C350.304 159.888 348.679 158.603 349.057 157.696C349.397 156.902 349.17 154.748 349.359 154.143C349.586 153.425 350.342 151.195 349.51 150.666C349.019 150.364 348.414 149.457 348.15 149.041L344.975 145.866C344.635 146.962 344.37 147.605 343.728 148.587C343.35 149.117 343.085 149.419 342.707 149.948C342.216 150.628 341.989 151.233 341.233 151.649C340.288 152.14 339.532 151.876 338.474 151.876C337.189 151.876 336.395 151.989 335.261 151.422C334.921 151.271 334.619 151.158 334.354 150.855C334.014 150.477 333.976 150.024 333.787 149.495C333.296 148.323 332.805 147.756 331.973 146.773C331.595 146.282 331.293 145.942 330.839 145.526C330.537 145.261 330.159 145.224 329.932 144.846C329.214 143.787 328.987 142.994 328.685 141.784C328.383 140.613 328.005 139.857 328.005 138.609C328.005 138.345 327.854 138.08 328.005 137.929C328.458 137.551 328.95 137.476 329.592 137.476C330.083 137.476 330.272 137.967 330.726 138.156C331.671 138.534 332.2 138.761 333.22 138.95C333.031 138.118 332.54 137.665 332.54 136.795C332.54 135.964 333.107 135.51 333.107 134.641C333.107 133.696 332.729 133.091 332.313 132.26C331.86 131.428 331.52 130.786 330.726 130.219C330.272 129.917 329.894 129.841 329.365 129.765C327.854 129.501 326.946 129.425 325.397 129.425C323.847 129.425 322.865 129.463 321.428 130.106C320.824 130.37 320.597 130.824 320.068 131.239C319.198 131.995 318.669 132.411 317.8 133.167C317.157 133.734 316.893 134.225 316.439 134.981C315.986 135.737 315.494 136.077 314.965 136.795C314.172 137.854 313.491 138.609 313.491 139.97C313.491 140.877 313.794 141.369 313.945 142.238C314.323 144.468 314.398 145.753 314.398 148.02C314.398 149.041 314.512 149.608 314.398 150.628C314.323 151.384 314.058 151.8 314.058 152.556C314.058 153.312 314.361 153.765 314.625 154.483C314.965 155.428 315.306 155.995 315.759 156.865C316.137 157.583 316.553 158.036 316.553 158.906C316.553 160.758 315.343 161.627 314.625 163.328C314.436 163.819 314.512 164.159 314.512 164.688C314.512 165.18 313.907 165.255 313.491 165.482C312.735 165.898 312.471 166.654 312.471 167.523C312.471 170.282 312.962 171.794 313.151 174.553C313.265 176.027 313.416 176.934 313.945 178.295C314.436 179.655 316.326 179.769 316.326 181.205V183.51C316.326 184.757 316.099 185.513 315.646 186.647C315.457 187.176 315.117 187.479 314.852 188.008C314.474 188.877 314.361 189.482 313.945 190.389C313.189 192.128 313.038 193.261 312.131 194.924C311.639 195.832 311.072 196.209 310.657 197.192L317.46 198.893C318.858 198.666 319.425 197.948 320.748 197.532C321.957 197.154 322.751 197.192 324.036 197.192C324.754 197.192 325.246 196.852 325.85 197.192C326.493 197.57 326.38 198.288 326.644 199.006C326.984 199.913 327.438 200.556 327.665 201.501C327.665 202.03 327.589 202.332 327.589 202.899C327.589 204.109 328.534 204.524 329.101 205.583C329.63 206.565 329.932 207.208 330.348 208.304C330.688 209.249 331.142 209.778 331.142 210.798C331.142 211.063 330.991 211.214 330.915 211.479C330.802 211.819 330.839 212.159 330.575 212.386C330.31 212.575 330.008 212.461 329.668 212.499C328.95 212.575 328.534 212.65 327.854 212.726C326.342 212.953 325.435 213.18 323.998 213.746C322.6 214.313 321.882 215.032 320.937 216.241C320.672 216.619 320.559 216.921 320.257 217.261C319.274 218.433 318.065 218.735 316.515 218.735C315.986 218.735 315.683 218.584 315.154 218.509C314.096 218.395 313.416 218.509 312.433 218.169C311.866 217.98 311.602 217.564 311.072 217.261C309.258 216.128 307.973 215.561 305.819 215.561C305.101 215.561 304.685 215.787 303.967 215.787C303.098 215.787 302.568 215.561 301.699 215.561C300.717 215.561 300.112 215.75 299.205 216.128C298.524 216.392 298.033 216.506 297.391 216.921C297.013 217.148 296.899 217.526 296.597 217.828C295.879 218.546 295.274 218.849 294.329 219.189C293.8 219.378 293.498 219.605 292.968 219.869C290.89 220.928 289.529 221.57 287.186 221.57C287.261 222.666 286.808 223.573 287.526 224.405C287.753 224.669 288.093 224.669 288.433 224.858C288.924 225.123 289.265 225.274 289.794 225.539C290.323 225.803 290.55 226.181 291.041 226.559C291.683 227.05 292.439 227.088 292.855 227.806C293.233 228.411 293.195 228.865 293.195 229.583V232.115C293.195 234.307 294.102 235.554 294.102 237.746C294.102 239.409 293.573 240.543 292.402 241.715C292.099 242.017 292.061 242.32 291.721 242.622C291.003 243.227 290.398 243.416 289.907 244.209C288.433 246.591 288.055 248.329 287.98 251.126C287.942 252.638 287.753 253.507 287.526 254.981C287.337 256.191 287.261 256.984 286.846 258.156C286.581 258.874 286.506 259.328 286.165 259.97C285.976 260.348 285.636 260.424 285.258 260.65C283.746 261.595 282.688 262.087 281.743 263.598C280.836 265.072 280.647 266.131 280.269 267.794C280.043 268.852 279.74 269.419 279.476 270.515L290.096 274.521C291.457 275.088 291.532 274.975 292.628 275.353C293.913 275.769 294.329 275.58 295.539 275.504C297.277 275.391 298.751 274.635 300.906 274.71C302.493 274.748 303.287 273.954 303.816 272.518C303.929 272.216 305.479 269.608 305.743 269.343C306.839 268.096 306.197 264.883 309.334 264.808C310.203 264.77 310.77 264.468 312.168 264.506C313.831 264.543 316.137 262.465 318.216 262.313C319.274 262.238 320.937 261.671 321.92 261.255C323.129 260.726 326.493 261.104 327.778 261.595C330.386 262.691 332.502 264.77 334.543 261.52C335.866 259.403 335.828 260.386 335.337 257.627C335.11 256.266 336.395 255.813 336.849 254.225C337.076 253.356 338.096 252.298 338.323 251.466C338.89 249.425 339.986 248.669 337.718 246.817C336.168 245.57 333.674 245.268 332.427 243.378C332.124 242.924 331.784 241.337 331.784 240.77C331.784 239.069 332.049 237.633 332.049 235.857C332.049 235.101 332.087 232.304 331.86 231.699C331.52 230.868 331.671 230.49 330.839 229.507C330.386 228.978 329.857 227.466 330.348 226.71C331.557 224.783 333.598 224.934 335.564 223.913C336.887 223.233 339.079 222.402 338.739 220.55C338.474 219.113 337.491 217.488 338.361 216.468C338.663 216.09 340.553 216.808 341.195 216.921C343.652 217.413 344.483 216.506 347.507 217.715C352.269 219.643 354.272 219.907 359.488 219.416C360.131 219.34 364.326 219.302 364.326 219.302L364.364 219.113Z" stroke="black" stroke-width="0.377953"/>
    </g>
  <g id="Al Batinah North">
<path fill-rule="evenodd" clip-rule="evenodd" d="M364.364 219.113L364.402 217.602C364.402 214.956 360.887 215.523 360.32 212.235C360.017 210.458 360.055 208.757 359.904 206.943C359.753 205.167 358.468 203.428 357.296 202.143C355.633 200.291 354.159 198.402 354.877 195.794C355.633 192.997 355.331 194.509 354.991 191.485V191.334C355.482 187.592 357.712 188.499 359.035 186.836C360.206 185.324 359.828 184.266 359.413 182.754C358.808 180.6 355.898 179.353 353.894 178.861C352.307 178.483 351.324 178.672 350.568 177.236C349.586 175.384 349.283 169.224 348.717 168.543C348.187 167.901 347.356 163.781 347.696 163.29C348.754 161.816 349.132 162.723 350.228 162.95C352.383 163.365 351.324 161.74 350.795 160.757C350.304 159.888 348.679 158.603 349.057 157.696C349.397 156.902 349.17 154.748 349.359 154.143C349.586 153.425 350.342 151.195 349.51 150.666C349.019 150.364 348.414 149.457 348.15 149.041L344.975 145.866C345.164 145.261 345.806 145.11 345.995 144.506C346.071 144.203 345.957 143.787 346.222 143.598C346.6 143.258 347.054 143.447 347.583 143.372C348.641 143.22 349.283 142.994 350.304 142.578C351.513 142.087 352.534 142.011 353.252 140.877C353.894 139.819 354.31 139.139 355.18 138.269C355.482 137.967 355.671 137.778 356.087 137.589C356.616 137.362 357.258 137.324 357.447 136.795C357.636 136.228 357.598 135.85 357.674 135.208L357.22 131.58C357.296 130.937 357.296 130.408 357.787 129.992C358.052 129.803 358.392 129.841 358.694 129.765C359.337 129.576 359.942 129.387 360.66 129.274C360.698 129.387 360.698 129.501 360.735 129.652C361.113 131.58 361.378 132.713 361.869 134.641C362.058 135.51 362.096 136.077 362.436 136.909C363.117 138.534 363.835 139.365 364.591 140.991C365.082 142.049 365.195 142.729 365.611 143.825C366.367 145.866 367.463 146.773 368.219 148.814C368.786 150.364 369.05 151.309 369.58 152.896C369.655 153.198 369.693 153.501 369.806 153.803C369.882 154.03 370.146 154.03 370.26 154.257C370.638 155.088 370.751 155.655 371.054 156.524C372.074 159.283 373.208 160.606 374.342 163.328C375.967 165.142 377.139 166.465 378.424 168.543C378.915 169.375 379.142 169.98 379.671 170.811C380.124 171.529 380.616 171.869 381.258 172.398C382.014 173.041 382.128 173.797 382.619 174.666C383.564 176.329 384.584 177.085 386.134 178.181C386.814 178.672 387.192 179.013 387.835 179.542C388.326 179.92 388.553 180.373 388.968 180.902C390.216 182.339 390.82 183.359 391.803 184.984C393.013 186.95 393.882 188.046 395.205 189.973C395.696 190.729 396.301 190.994 396.792 191.787C397.51 192.959 397.661 193.791 398.38 194.962C398.72 195.529 399.098 195.794 399.513 196.323C400.307 197.381 400.798 198.024 401.668 199.044C402.613 200.102 403.595 200.669 403.822 202.106C403.973 203.239 404.313 203.844 404.956 204.827C405.183 205.205 405.561 205.318 405.75 205.734C406.128 206.452 406.241 207.095 406.883 207.548C407.375 207.888 407.791 208.039 408.244 208.455C409.491 209.513 409.945 210.458 411.306 211.403C411.608 211.592 411.91 211.743 412.213 211.97C413.044 212.65 413.233 213.52 414.14 214.124C415.539 215.069 416.37 215.674 417.768 216.619C419.28 217.677 419.961 218.471 421.283 219.794C422.342 220.852 423.135 221.23 424.458 221.948C424.836 222.137 425.025 222.477 425.365 222.742C425.97 223.195 426.499 223.346 427.18 223.762C427.898 224.14 428.238 224.632 428.994 225.009C430.694 225.841 431.791 226.181 433.529 226.937C435.646 227.882 436.893 228.411 439.198 228.978C439.69 229.091 440.03 229.243 440.559 229.318C441.768 229.469 442.411 229.809 443.62 229.998C445.737 230.376 447.022 230.603 449.063 231.359C450.31 231.813 450.953 232.417 452.238 232.833C454.09 233.249 455.148 233.551 456.887 234.307C457.416 234.534 457.718 234.874 458.247 235.101C458.058 235.328 457 236.008 456.887 236.31C456.168 237.822 455.715 238.238 454.732 239.485C454.241 240.128 451.973 241.753 451.255 242.131C448.345 243.567 449.894 244.928 447.891 246.175C447.173 246.628 440.824 247.082 439.614 247.044C438.443 247.006 437.838 247.082 436.742 247.195C435.683 247.309 432.509 249.312 431.753 250.106C430.657 251.202 426.046 254.83 424.761 255.472C422.757 256.531 419.961 257.74 417.806 258.458L416.219 258.118C414.291 258.118 414.518 258.458 412.931 258.95C411.343 259.441 409.68 260.764 408.131 260.613C406.543 260.461 405.523 258.156 405.334 256.795C405.031 254.717 403.671 254.414 401.932 253.923C400.005 253.394 401.176 250.559 399.513 250.899C398.342 251.126 396.565 252.562 395.998 251.655C395.318 250.635 396.906 246.704 393.768 250.672C391.803 253.129 390.518 249.917 389.309 248.972C387.683 247.687 387.003 247.573 385.529 245.835C385.416 245.721 385.113 245.343 385 245.23C382.619 243.454 381.22 245.419 380.313 244.965C377.894 243.718 377.706 240.014 376.798 237.633C375.513 234.269 371.545 234.307 370.902 230.036C370.6 227.882 368.748 226.257 366.556 226.483C364.893 226.672 362.776 225.463 363.306 223.687C363.986 221.495 364.175 222.024 364.591 219.265L364.364 219.113Z" stroke="black" stroke-width="0.377953"/>
    </g>
  <g id="Ad Dakhiliyah">
<path fill-rule="evenodd" clip-rule="evenodd" d="M525.183 288.317C523.633 289.261 523.973 289.11 522.537 289.564C521.252 289.98 522.688 291.189 522.688 292.172C522.688 293.381 521.517 294.137 523.104 294.78C524.049 295.195 526.354 297.539 524.2 298.03C522.915 298.332 522.197 298.37 521.025 298.597C517.813 299.202 519.589 303.548 515.961 303.132C513.504 302.868 510.783 304.644 508.288 305.287C507.532 305.476 504.811 306.496 504.206 306.95C502.43 308.348 501.22 306.723 498.915 307.441C496.95 308.046 496.798 310.956 495.438 310.276C494.002 309.557 492.452 310.087 490.902 310.087C486.594 310.087 489.731 312.165 491.016 314.131C491.923 315.491 493.283 317.419 493.888 318.855C494.266 320.669 494.833 321.917 492.943 322.559C491.847 322.937 491.772 324.033 492.641 324.902C493.813 326.036 494.115 328.606 493.699 330.194C492.074 336.468 490.865 334.616 487.803 339.189C485.838 342.137 488.975 345.198 485.082 348.562C484.364 349.167 482.587 351.283 483.646 352.228C484.288 352.795 487.236 351.964 486.896 355.932C486.858 356.537 486.858 357.104 486.858 357.746C486.669 360.619 486.518 360.77 484.893 362.811C483.117 365.041 481.151 367.195 479.072 369.123C477.258 370.861 475.746 372.978 474.083 374.906C472.005 377.324 471.476 380.083 470.984 383.183C470.568 385.564 468.263 386.357 467.545 389.91C467.016 392.669 471.362 389.646 472.307 389.381C474.386 388.89 474.839 388.89 476.691 390.288C478.77 391.838 482.134 396.638 482.209 399.17C482.814 401.929 483.305 401.929 484.742 403.97C485.913 405.633 487.539 407.409 488.597 409.11C489.579 410.698 491.129 414.099 491.431 415.951C491.62 417.161 489.617 422.981 493.472 422.528C496.118 422.225 496.723 425.173 498.348 426.836C498.839 427.328 501.485 430.465 501.561 430.956C502.014 433.148 499.746 434.131 498.802 436.134C497.441 439.006 497.97 437.797 497.403 440.858C496.987 443.164 498.764 450.95 499.217 453.709L499.784 459.416C499.822 459.643 500.087 461.494 500.162 461.683C500.842 464.102 501.031 467.542 500.238 469.961C500.049 470.565 497.819 473.589 497.403 474.043C496.118 475.441 495.287 478.691 495.06 480.543C494.946 481.413 495.022 483.756 495.173 484.587C495.854 487.687 495.476 490.748 494.909 493.847L486.216 492.6L425.97 481.488C425.517 481.375 425.063 481.261 424.609 481.072C422.493 480.354 420.414 479.183 418.222 478.313C417.05 477.86 414.48 476.726 413.422 476.159C411.608 475.139 409.945 474.42 408.093 473.513C406.014 472.531 403.671 471.208 401.592 470.339C399.778 469.583 398.266 468.751 396.49 468.071C395.242 467.58 392.975 466.219 392.068 465.954C389.384 465.236 388.666 464.443 385.68 464.443C382.883 464.443 381.372 462.666 380.049 460.361C379.444 459.302 378.877 459.151 378.235 458.471C377.441 457.602 376.458 457.488 375.702 457.11C374.191 456.317 374.682 457.488 373.472 455.22L378.272 440.518L377.932 431.107C377.894 428.839 379.557 426.761 381.145 425.287C383.564 423.019 380.54 421.431 380.011 419.957C379.784 419.315 380.691 416.329 380.88 415.346C381.447 412.209 381.712 409.791 382.052 406.654C382.279 404.499 382.657 402.609 382.997 400.531C383.488 397.318 384.698 394.446 385.378 391.384C386.285 388.02 385.983 377.778 389.12 375.624C391.198 374.187 390.707 374.452 391.954 372.449C392.71 371.239 393.277 368.102 393.202 366.704C393.126 364.776 394.26 361.072 394.449 359.069C394.789 355.479 395.242 354.383 394.109 350.83C393.995 350.339 393.617 350.074 393.466 349.507C392.635 346.824 392.597 344.594 393.806 342.061C394.146 341.343 399.022 335.409 399.665 334.994C401.441 333.898 403.784 332.424 405.976 332.991C408.282 333.595 412.099 332.688 412.024 329.816C411.986 328.002 411.608 326.414 409.983 325.469C409.567 325.243 408.66 324.751 408.244 324.638C407.072 324.298 406.241 323.995 405.183 323.428C404.313 322.975 403.671 321.992 403.482 321.009C403.066 318.817 403.406 318.402 404.465 316.739C405.334 315.378 406.203 315.151 406.808 313.602C407.035 312.997 406.317 310.124 406.279 309.709C406.279 309.331 406.317 309.028 406.317 308.613C406.317 306.987 406.77 304.909 406.392 303.548C404.994 298.181 410.474 298.521 408.206 296.329C405.069 293.23 407.488 294.931 409 292.512C409.831 291.189 411.608 291.68 412.968 290.584C414.972 288.997 415.161 289.866 416.748 289.186C418.827 288.279 418.184 284.688 419.809 284.272C422.002 283.706 421.661 284.31 424.307 283.025C426.65 283.365 428.2 283.894 430.241 285.028C431.828 285.898 433.076 285.86 434.587 287.296C435.494 288.165 436.742 289.224 437.535 290.168C437.913 290.622 439.425 291.907 440.143 291.831C442.562 291.567 441.315 291.34 443.998 291.831C446.379 292.285 447.438 294.817 450.613 293.646C451.331 293.381 454.959 292.209 455.488 292.209C459.646 292.058 461.006 293.079 464.861 293.646C466.978 293.948 470.002 293.079 471.476 295.044C471.74 295.422 471.778 295.46 472.118 295.8C473.139 296.631 474.272 297.35 475.52 296.631C475.935 296.367 479.186 290.698 479.337 290.093C479.866 288.014 480.32 285.898 482.323 284.764C484.931 283.252 482.965 281.362 483.494 280.455C484.175 279.359 486.594 279.737 487.765 275.164C488.408 272.707 489.164 269.343 492.263 269.268C492.452 269.268 497.176 268.663 497.214 268.663C498.499 268.096 498.537 267.529 499.104 266.131C499.179 265.98 499.104 265.904 499.255 265.753L499.898 263.447C502.317 263.863 504.357 264.09 506.663 265.11C508.326 265.828 510.783 266.055 512.786 266.924C515.054 267.907 515.696 268.814 516.679 271.082C517.321 272.594 517.85 272.972 519.022 274.143C520.874 276.071 521.101 276.109 521.63 278.717C521.97 280.342 521.63 281.816 522.953 283.214C523.671 283.97 524.842 286.011 524.88 287.069C524.88 287.334 525.22 287.976 525.296 288.203L525.183 288.317Z" stroke="black" stroke-width="0.377953"/>
    </g>
  <g id="Al Batinah South">
<path fill-rule="evenodd" clip-rule="evenodd" d="M417.617 258.307C419.772 257.589 422.568 256.342 424.572 255.321C425.857 254.641 430.506 251.05 431.564 249.954C432.32 249.161 435.494 247.12 436.553 247.044C437.687 246.931 438.254 246.855 439.425 246.893C440.597 246.931 446.946 246.477 447.702 246.024C449.706 244.776 448.156 243.416 451.066 241.98C451.746 241.639 454.052 239.976 454.543 239.334C455.526 238.049 455.98 237.671 456.698 236.159C456.849 235.895 457.869 235.176 458.058 234.95C458.323 235.063 458.663 235.063 458.965 235.176C459.835 235.554 460.288 235.97 461.233 236.197C463.425 236.726 464.559 237.255 466.676 238.011C467.167 238.162 467.507 238.162 468.036 238.351C468.792 238.616 469.246 238.918 470.077 238.918C471.249 238.918 471.891 238.767 473.025 238.578C473.743 238.465 474.235 238.502 474.953 238.238C476.087 237.822 476.616 237.369 477.787 236.991C477.712 237.293 477.561 237.558 477.561 237.898C477.561 238.843 477.863 239.561 478.581 240.165C479.375 240.846 479.98 241.072 480.849 241.639C481.227 241.904 481.34 242.282 481.756 242.546C482.55 243.076 483.117 243.265 484.024 243.567C484.553 243.718 484.855 244.02 485.422 244.02C486.594 244.02 487.274 244.134 488.408 244.134C489.013 244.134 489.391 243.945 490.033 243.907C491.431 243.794 492.263 243.68 493.699 243.68C496.08 243.68 497.705 243.718 499.671 243.756L499.973 246.288C500.351 247.46 501.334 250.219 501.372 251.391C501.372 251.655 501.825 252.713 501.825 253.923C501.825 255.51 501.712 255.132 501.296 256.417C500.918 257.589 499.406 259.441 499.444 260.991C499.444 261.482 499.746 263.145 499.935 263.598L499.293 265.904C499.18 266.055 499.217 266.093 499.142 266.282C498.613 267.68 498.537 268.247 497.252 268.814C497.214 268.814 492.49 269.419 492.301 269.419C489.202 269.495 488.446 272.858 487.803 275.315C486.594 279.888 484.175 279.51 483.532 280.606C483.003 281.513 484.968 283.403 482.361 284.915C480.395 286.049 479.942 288.203 479.375 290.244C479.224 290.811 475.973 296.518 475.557 296.783C474.31 297.539 473.176 296.783 472.156 295.951C471.816 295.611 471.778 295.535 471.513 295.195C470.039 293.23 467.016 294.099 464.899 293.797C461.006 293.23 459.683 292.209 455.526 292.361C454.997 292.398 451.368 293.57 450.65 293.797C447.476 294.931 446.417 292.436 444.036 291.983C441.353 291.454 442.6 291.718 440.181 291.983C439.463 292.058 437.951 290.811 437.573 290.32C436.78 289.375 435.57 288.317 434.625 287.447C433.113 286.011 431.866 286.049 430.279 285.18C428.2 284.046 426.688 283.517 424.345 283.176L422.757 280.833C422.38 280.644 422.304 280.531 421.888 280.342C418.978 278.981 419.696 278.263 419.772 275.126C419.809 273.576 416.748 271.762 415.69 270.78C414.367 269.608 414.027 269.154 414.783 267.491C415.463 266.017 416.635 265.715 417.466 264.997C418.335 264.241 420.414 263.636 420.074 262.162C419.772 260.839 418.6 259.29 417.731 258.345L417.617 258.307Z" stroke="black" stroke-width="0.377953"/>
    </g>
  <g id="Ad Dhahirah">
<path fill-rule="evenodd" clip-rule="evenodd" d="M424.269 283.101C421.624 284.424 421.926 283.819 419.772 284.348C418.109 284.764 418.789 288.354 416.71 289.261C415.123 289.942 414.972 289.072 412.931 290.66C411.57 291.718 409.756 291.265 408.962 292.587C407.488 294.969 405.032 293.306 408.169 296.405C410.398 298.597 404.956 298.257 406.354 303.624C406.732 305.022 406.241 307.063 406.279 308.688C406.279 309.104 406.241 309.369 406.241 309.784C406.317 310.2 406.997 313.072 406.77 313.677C406.165 315.189 405.296 315.454 404.427 316.814C403.369 318.477 403.028 318.931 403.444 321.085C403.633 322.068 404.276 323.013 405.145 323.504C406.203 324.071 407.035 324.373 408.206 324.713C408.66 324.827 409.529 325.318 409.945 325.545C411.608 326.49 411.948 328.077 411.986 329.891C412.024 332.764 408.206 333.633 405.939 333.066C403.746 332.499 401.403 333.973 399.627 335.069C398.984 335.485 394.109 341.381 393.769 342.137C392.597 344.707 392.635 346.899 393.428 349.583C393.617 350.15 393.957 350.414 394.071 350.906C395.243 354.496 394.751 355.554 394.411 359.145C394.222 361.148 393.088 364.852 393.164 366.78C393.239 368.178 392.672 371.277 391.917 372.524C390.669 374.528 391.161 374.263 389.082 375.699C385.945 377.854 386.285 388.096 385.34 391.46C384.698 394.559 383.488 397.394 382.959 400.606C382.619 402.723 382.241 404.575 382.014 406.729C381.674 409.866 381.409 412.323 380.843 415.422C380.654 416.367 379.746 419.391 379.973 420.033C380.502 421.507 383.526 423.095 381.107 425.362C379.52 426.836 377.857 428.877 377.895 431.183L378.235 440.594L284.616 452.877L302.077 397.28L264.282 334.011C264.282 333.633 264.169 333.784 264.169 333.406C264.169 332.121 265 331.517 265.189 330.269C265.529 328.153 265.756 326.906 265.756 324.751V322.219C265.756 320.972 265.34 320.329 265.189 319.082C265.076 318.137 265.302 317.57 265.302 316.625C265.302 316.247 265.189 315.983 265.189 315.567C265.113 313.828 265.416 312.846 265.416 311.107C265.416 309.444 264.849 308.499 264.849 306.836C264.849 306.08 265.265 305.74 265.529 305.022C265.794 304.342 265.832 303.888 266.096 303.208C266.247 302.717 266.474 302.376 266.55 301.847C266.663 301.167 266.398 300.713 266.55 300.033C266.625 299.655 266.852 299.466 267.003 299.126C267.268 298.446 267.268 297.954 267.57 297.312C268.439 295.535 269.573 294.931 270.745 293.343C271.198 292.739 271.463 291.869 271.879 291.189C272.483 289.942 272.824 289.337 273.58 288.241C273.957 287.636 274.524 287.485 274.827 286.767C275.167 285.935 275.205 285.369 275.507 284.499C276.452 281.665 276.943 279.964 277.888 277.129C278.757 274.483 278.909 272.934 279.589 270.213L290.209 274.219C291.57 274.786 291.646 274.672 292.742 275.05C294.027 275.466 294.443 275.277 295.652 275.202C297.391 275.088 298.865 274.332 301.019 274.408C302.606 274.446 303.4 273.652 303.929 272.216C304.043 271.913 305.592 269.306 305.857 269.041C306.953 267.794 306.31 264.581 309.447 264.506C310.317 264.468 310.883 264.165 312.282 264.203C313.945 264.241 316.25 262.162 318.329 262.011C319.387 261.935 321.05 261.369 322.033 260.953C323.243 260.424 326.606 260.802 327.891 261.293C330.499 262.389 332.616 264.468 334.657 261.217C335.98 259.101 335.942 260.083 335.45 257.324C335.224 255.964 336.509 255.51 336.962 253.923C337.189 253.054 338.209 251.995 338.436 251.164C339.003 249.123 340.099 248.367 337.832 246.515C336.282 245.268 333.787 244.965 332.54 243.076C332.238 242.622 331.898 241.035 331.898 240.468C331.898 238.767 332.162 237.331 332.162 235.554C332.162 234.798 332.2 232.002 331.973 231.397C331.633 230.565 331.784 230.187 330.953 229.205C330.499 228.676 329.97 227.164 330.461 226.408C331.671 224.48 333.712 224.632 335.677 223.611C337 222.931 339.192 222.099 338.852 220.247C338.587 218.811 337.605 217.186 338.474 216.165C338.776 215.787 340.666 216.506 341.309 216.619C343.765 217.11 344.597 216.203 347.62 217.413C352.383 219.34 354.386 219.605 359.602 219.113C360.244 219.038 364.439 219 364.439 219C364.024 221.759 363.835 221.23 363.154 223.422C362.587 225.198 364.704 226.408 366.405 226.219C368.597 225.954 370.449 227.617 370.751 229.772C371.394 234.043 375.362 234.005 376.647 237.369C377.554 239.75 377.781 243.454 380.162 244.701C381.069 245.154 382.468 243.189 384.849 244.965C384.962 245.041 385.302 245.419 385.378 245.57C386.852 247.309 387.495 247.422 389.157 248.707C390.329 249.652 391.652 252.865 393.617 250.408C396.754 246.477 395.167 250.37 395.847 251.391C396.452 252.298 398.191 250.861 399.362 250.635C400.987 250.295 399.854 253.129 401.781 253.658C403.52 254.15 404.88 254.414 405.183 256.531C405.372 257.929 406.392 260.197 407.98 260.348C409.529 260.499 411.192 259.176 412.78 258.685C414.367 258.194 414.14 257.854 416.068 257.854L417.655 258.194C418.524 259.101 419.696 260.688 419.998 262.011C420.339 263.447 418.26 264.052 417.391 264.846C416.559 265.602 415.387 265.866 414.707 267.34C413.951 269.003 414.329 269.457 415.614 270.628C416.672 271.573 419.734 273.425 419.696 274.975C419.62 278.074 418.902 278.83 421.813 280.191C422.266 280.417 422.304 280.493 422.682 280.682L424.269 283.025V283.101Z" stroke="black" stroke-width="0.377953"/>
    </g>
  <g id="Ash Sharqiyah South">
<path fill-rule="evenodd" clip-rule="evenodd" d="M548.767 466.824C550.354 464.594 550.883 462.742 551.828 460.247C552.395 458.811 552.811 457.035 553.34 455.523C553.68 454.616 553.945 452.726 554.285 451.592C554.512 450.798 555.268 448.002 555.532 447.435C555.986 444.94 556.175 443.844 556.326 441.387C556.402 439.876 556.817 438.515 556.893 437.041C556.968 435.869 557.157 434.66 556.855 433.526C556.704 432.921 556.931 431.825 556.364 430.805C556.326 430.729 555.57 429.142 555.532 429.066C554.965 427.403 554.285 425.816 553.756 424.077C553.076 421.885 553.265 421.998 553.567 419.731C553.718 418.559 553.718 417.236 553.945 416.178C554.55 413.683 554.361 415.309 555.532 416.14C556.704 416.972 558.972 418.899 559.463 420.298C560.068 422.036 560.446 422.641 560.559 424.682C560.635 426.496 561.126 429.709 562.94 430.54C564.641 431.334 565.888 434.093 567.967 430.654C569.97 427.365 572.011 425.891 575.564 424.531C576.206 424.266 577.34 423.661 577.869 423.246V390.402C578.701 387.794 579.835 387.34 580.515 384.77C580.817 383.674 581.006 380.65 580.061 379.743C579.419 379.139 579.532 379.063 578.663 378.572C577.983 378.194 577.491 376.002 577.454 375.283C577.265 372.033 577.642 369.614 577.794 366.515C577.945 363.265 577.151 361.488 574.581 359.523C573.409 358.616 572.351 357.406 572.994 355.819C573.334 355.025 575.753 353.135 576.546 352.682L576.698 352.569C578.398 351.397 579.759 349.734 581.346 348.411C583.198 346.861 583.085 347.58 584.861 347.806C585.957 347.957 587.016 349.847 587.583 350.641C588.603 352.002 590.077 350.868 592.156 351.548C593.479 352.002 594.877 351.586 595.52 350.263C595.86 349.545 594.31 348.827 593.668 347.844C592.345 345.803 592.761 346.332 591.929 344.102C590.984 341.57 590.455 340.965 588.49 339.076C585.315 336.09 586.411 333.595 584.786 330.307C583.841 328.38 582.707 325.129 580.742 324.071C579.948 323.655 579.608 323.05 579.116 322.446L578.172 319.535C580.402 319.8 582.178 320.367 584.294 320.858C587.431 321.652 590.644 319.913 593.252 318.326C593.705 318.061 595.142 317.268 595.671 317.154C595.822 318.024 596.011 318.553 596.238 319.422C596.465 320.254 596.502 320.896 596.918 321.69C597.523 322.975 598.203 323.58 598.846 324.865C599.375 325.961 599.791 326.603 600.433 327.699C600.698 328.191 600.735 328.644 601.113 329.06C601.605 329.627 602.172 329.665 602.928 329.854C603.759 330.043 604.213 330.194 605.082 330.194C605.082 331.139 605.346 331.706 605.876 332.461C606.254 332.991 606.367 333.482 606.896 333.822C607.35 334.087 607.879 333.973 608.257 334.389C608.748 334.918 608.521 335.561 608.937 336.203C609.164 336.581 609.542 336.694 609.844 336.997C610.6 337.753 611.054 338.244 611.998 338.811C612.981 339.416 613.397 339.983 614.266 340.739C614.757 341.154 615.249 341.306 615.627 341.872C615.702 342.024 615.665 342.175 615.74 342.326C617.063 344.329 618.575 345.35 620.956 345.841C621.636 345.992 622.09 346.106 622.77 346.294C624.66 346.748 625.831 346.899 627.759 347.202C628.25 347.277 628.591 347.466 629.12 347.542C629.649 347.617 629.951 347.504 630.48 347.542C631.803 347.693 632.521 348.146 633.768 348.562C634.94 348.94 635.734 348.94 636.943 349.129C638.077 349.28 638.757 349.583 639.929 349.583C641.063 349.583 641.705 349.318 642.839 349.507C643.255 351.472 643.444 352.531 644.2 354.307C644.465 354.987 644.578 355.441 644.88 356.121C645.334 357.255 646.128 357.822 646.128 359.069C646.128 359.561 645.712 359.787 645.447 360.203C644.805 361.261 644.54 362.093 644.54 363.378C644.54 364.247 644.88 364.739 644.88 365.608V368.594C644.88 370.786 644.767 372.033 644.427 374.225C644.351 374.754 644.087 375.057 643.973 375.586C643.784 376.455 643.822 377.06 643.406 377.854C643.028 378.609 642.424 378.761 641.705 379.214C640.874 379.743 640.836 380.575 640.458 381.482C639.929 382.805 638.871 383.107 638.077 384.317C637.283 385.526 636.905 386.32 636.036 387.491C634.335 389.797 632.672 390.931 632.181 393.841L632.294 393.501C632.294 394.483 632.37 395.013 632.37 396.033C632.37 396.676 632.03 397.016 631.765 397.583C631.236 398.679 631.274 399.548 631.085 400.757C631.047 400.909 630.896 401.022 630.858 401.211C630.669 402.269 630.745 403.176 629.951 403.932C629.687 404.197 629.346 404.272 629.044 404.499C628.666 404.764 628.515 405.104 628.137 405.406C627.003 406.389 626.172 406.843 625.416 408.128C625.151 408.619 624.811 408.959 624.622 409.488C624.282 410.509 624.698 411.265 624.168 412.209C623.866 412.776 623.337 412.852 622.808 413.23C621.674 414.061 621.183 414.931 620.54 416.178C619.671 417.803 617.97 418.106 617.592 419.92C617.29 421.431 617.441 422.452 617.139 424.002C616.798 425.74 615.287 426.231 614.871 427.97L615.098 428.877C614.833 429.595 614.417 429.973 614.077 430.691C613.85 431.183 613.775 431.561 613.51 432.052C612.981 433.035 612.225 433.337 611.696 434.32C610.978 435.605 610.676 436.512 610.335 437.948C610.26 438.25 610.298 438.591 610.109 438.855C609.882 439.12 609.466 438.969 609.202 439.195C608.937 439.422 609.013 439.8 608.861 440.102C608.559 440.82 608.219 441.236 607.841 441.917C607.463 442.597 607.312 443.088 606.82 443.731C606.216 444.487 605.46 444.902 605.46 445.885C605.46 446.49 605.8 446.83 605.8 447.472C605.8 447.737 605.876 447.964 605.687 448.153C605.573 448.266 605.346 448.191 605.233 448.266C604.515 448.909 603.948 449.211 603.079 449.627C602.02 450.156 601.454 450.685 600.357 451.214C598.279 452.235 596.805 452.348 594.802 453.482C593.932 453.973 593.441 454.389 592.534 454.843C591.513 455.334 590.757 455.409 589.813 456.09C589.094 456.581 588.754 456.997 588.112 457.564C586.411 459.038 585.277 459.718 583.69 461.306C582.556 462.439 581.762 463.006 580.628 464.14C579.986 464.783 579.683 465.312 578.928 465.841C578.625 466.03 578.323 466.181 578.02 466.408C577.567 466.786 577.416 467.126 577 467.542C576.395 468.109 575.866 468.373 575.413 469.129C574.883 469.998 574.77 470.754 573.939 471.397C573.258 471.926 572.767 472.191 572.124 472.757C571.066 473.702 570.839 474.534 569.743 475.479C569.214 475.932 568.836 476.197 568.383 476.726C567.778 477.406 567.551 477.898 566.909 478.54C565.737 479.712 564.943 480.392 564.074 481.828C563.923 482.395 563.583 482.698 563.28 483.189C562.562 484.398 561.995 485.117 561.353 486.364C561.164 486.742 560.899 487.044 560.748 487.384H548.88C547.595 486.817 549.107 484.512 547.368 483.113C546.31 482.282 545.894 482.622 544.95 482.66C543.778 482.698 545.781 477.746 545.932 477.104C546.461 474.685 547.86 472.569 548.238 470.339C548.465 469.054 548.351 468.562 548.691 467.202L548.767 466.824Z" stroke="black" stroke-width="0.377953"/>
    </g>
  <g id="Ash Sharqiyah North">
<path fill-rule="evenodd" clip-rule="evenodd" d="M525.183 288.317C528.32 287.372 527.564 287.069 529.832 286.049C530.776 285.633 529.983 285.935 530.965 287.22C531.872 288.392 531.986 288.317 532.704 289.715C534.329 292.739 537.844 286.2 540.452 289.261C541.435 290.395 541.397 290.357 542.153 291.643C543.816 294.402 544.421 291.302 547.709 293.268C548.956 294.024 550.77 293.986 552.093 293.608C554.172 293.608 556.024 293.608 558.027 293.872C558.405 293.91 559.161 293.419 559.274 294.817C559.539 298.37 559.123 300.978 562.713 302.943C564.943 304.153 563.658 303.737 564.943 305.135C565.548 305.778 566.72 304.38 567.891 306.345C568.798 307.894 568.345 310.124 570.386 310.124C571.973 310.124 573.069 310.465 574.014 311.863C575.072 313.413 574.619 315.189 575.791 317.079C575.904 317.268 575.98 317.494 576.055 317.721L578.134 319.498L579.079 322.408C579.57 323.013 579.948 323.617 580.704 324.033C582.669 325.091 583.803 328.342 584.748 330.269C586.373 333.557 585.277 336.052 588.452 339.038C590.417 340.89 590.946 341.494 591.891 344.065C592.723 346.257 592.307 345.765 593.63 347.806C594.272 348.827 595.822 349.507 595.482 350.225C594.839 351.586 593.479 351.964 592.118 351.51C590.039 350.83 588.565 351.964 587.545 350.603C586.978 349.809 585.882 347.957 584.824 347.768C583.047 347.504 583.161 346.824 581.309 348.373C579.721 349.696 578.361 351.359 576.66 352.531L576.509 352.644C575.715 353.135 573.296 354.987 572.956 355.781C572.313 357.368 573.372 358.578 574.543 359.485C577.113 361.45 577.945 363.227 577.756 366.477C577.605 369.614 577.189 371.995 577.416 375.246C577.454 375.964 577.945 378.156 578.625 378.534C579.495 379.025 579.381 379.101 580.024 379.706C580.969 380.613 580.78 383.636 580.477 384.732C579.797 387.302 578.625 387.756 577.832 390.364V423.208C577.302 423.661 576.169 424.266 575.526 424.493C571.973 425.854 569.932 427.328 567.929 430.616C565.85 434.055 564.603 431.296 562.902 430.502C561.088 429.633 560.635 426.42 560.521 424.644C560.408 422.603 560.03 421.998 559.425 420.26C558.934 418.899 556.666 416.972 555.495 416.102C554.323 415.271 554.512 413.608 553.907 416.14C553.643 417.198 553.68 418.559 553.529 419.693C553.227 421.961 553.038 421.847 553.718 424.039C554.247 425.778 554.928 427.365 555.495 429.028C555.495 429.066 556.25 430.654 556.326 430.767C556.855 431.787 556.666 432.921 556.817 433.488C557.082 434.622 556.893 435.831 556.855 437.003C556.78 438.477 556.402 439.876 556.288 441.35C556.137 443.806 555.948 444.902 555.495 447.397C555.23 447.964 554.474 450.761 554.247 451.554C553.907 452.688 553.605 454.578 553.302 455.485C552.773 456.997 552.358 458.773 551.791 460.209C550.846 462.704 550.279 464.556 548.729 466.786L540.263 460.209C539.847 459.983 539.356 459.68 538.94 459.416C536.786 458.093 533.876 456.846 531.948 455.334C531.003 454.578 529.756 453.444 528.849 452.802C527.904 452.121 526.203 451.025 525.447 450.156C524.729 449.362 520.798 445.923 519.967 445.469C517.964 444.373 517.019 443.391 515.658 446.112C514.487 448.531 516.717 448.909 513.655 449.929C511.576 450.609 509.724 450.609 508.024 451.176C505.113 452.121 502.052 452.65 499.217 453.822C498.764 451.025 496.987 443.239 497.403 440.972C497.97 437.91 497.441 439.12 498.802 436.247C499.746 434.244 502.014 433.224 501.561 431.069C501.447 430.578 498.839 427.479 498.348 426.95C496.685 425.287 496.118 422.301 493.472 422.641C489.617 423.094 491.621 417.274 491.432 416.065C491.129 414.213 489.58 410.811 488.597 409.224C487.501 407.523 485.913 405.709 484.742 404.083C483.306 402.043 482.814 402.043 482.209 399.283C482.134 396.751 478.77 391.913 476.691 390.402C474.839 389.003 474.424 389.003 472.307 389.494C471.362 389.721 467.016 392.745 467.545 390.024C468.225 386.471 470.569 385.677 470.984 383.296C471.513 380.235 472.005 377.476 474.084 375.019C475.746 373.091 477.258 370.975 479.072 369.236C481.151 367.271 483.079 365.117 484.893 362.924C486.518 360.921 486.669 360.732 486.858 357.86C486.858 357.255 486.858 356.688 486.896 356.046C487.236 352.077 484.288 352.909 483.646 352.342C482.587 351.359 484.364 349.28 485.082 348.676C488.937 345.274 485.8 342.213 487.803 339.302C490.865 334.729 492.112 336.581 493.699 330.307C494.115 328.72 493.813 326.15 492.641 325.016C491.734 324.146 491.847 323.013 492.943 322.672C494.833 322.03 494.266 320.745 493.888 318.968C493.284 317.494 491.923 315.605 491.016 314.244C489.731 312.279 486.556 310.2 490.902 310.2C492.452 310.2 494.002 309.671 495.438 310.389C496.798 311.069 496.95 308.197 498.915 307.554C501.221 306.836 502.43 308.461 504.206 307.063C504.811 306.572 507.532 305.589 508.288 305.4C510.821 304.757 513.504 302.981 515.961 303.246C519.589 303.624 517.813 299.315 521.025 298.71C522.235 298.483 522.915 298.446 524.2 298.143C526.392 297.652 524.049 295.271 523.104 294.893C521.517 294.213 522.688 293.494 522.688 292.285C522.688 291.302 521.252 290.093 522.537 289.677C523.973 289.224 523.671 289.375 525.183 288.43V288.317Z" stroke="black" stroke-width="0.377953"/>
    </g>
  <g id="Muscat">
<path fill-rule="evenodd" clip-rule="evenodd" d="M499.595 243.718L499.898 246.25C500.276 247.422 501.258 250.181 501.296 251.353C501.296 251.617 501.75 252.676 501.75 253.885C501.75 255.472 501.636 255.095 501.22 256.38C500.843 257.551 499.331 259.403 499.368 260.953C499.368 261.444 499.671 263.107 499.86 263.561C502.279 263.976 504.32 264.203 506.625 265.224C508.288 265.942 510.745 266.169 512.748 267.038C515.016 268.021 515.658 268.928 516.641 271.195C517.283 272.707 517.813 273.085 518.984 274.257C520.836 276.184 521.063 276.222 521.592 278.83C521.932 280.455 521.592 281.929 522.915 283.328C523.633 284.083 524.805 286.124 524.843 287.183C524.843 287.447 525.183 288.09 525.258 288.317C528.395 287.372 527.639 287.069 529.907 286.049C530.852 285.633 530.058 285.935 531.041 287.221C531.948 288.392 532.061 288.317 532.78 289.715C534.405 292.739 537.92 286.2 540.528 289.261C541.51 290.395 541.472 290.358 542.228 291.643C543.891 294.402 544.496 291.302 547.784 293.268C549.031 294.024 550.846 293.986 552.168 293.608C554.247 293.608 556.099 293.608 558.102 293.872C558.48 293.91 559.236 293.419 559.35 294.817C559.614 298.37 559.198 300.978 562.789 302.943C565.019 304.153 563.734 303.737 565.019 305.135C565.624 305.778 566.795 304.38 567.967 306.345C568.874 307.895 568.42 310.124 570.461 310.124C572.049 310.124 573.145 310.465 574.09 311.863C575.148 313.413 574.694 315.189 575.866 317.079C575.98 317.268 576.055 317.495 576.131 317.721L578.209 319.498C580.439 319.762 582.216 320.329 584.332 320.821C587.469 321.614 590.682 319.876 593.29 318.288C593.743 318.024 595.18 317.23 595.709 317.117C595.368 315.038 594.65 313.904 593.441 312.128C593.101 311.636 592.836 311.296 592.534 310.767C592.458 310.616 592.496 310.427 592.42 310.313C592.156 310.049 591.854 310.049 591.513 309.86C591.022 309.595 590.682 309.293 590.153 309.066C589.435 308.764 589.019 308.537 588.339 308.159C587.696 307.819 587.205 307.706 586.524 307.365C585.315 306.761 584.786 306.08 583.803 305.098C582.858 304.153 582.329 303.472 581.876 302.263C581.384 300.865 581.346 299.466 579.948 298.861C579.23 298.597 578.625 298.635 578.134 298.068C577.794 297.69 577.983 297.236 577.907 296.707C577.718 295.422 576.546 294.893 576.546 293.57V290.811C576.546 289.035 575.564 287.939 574.052 286.994C573.107 286.427 572.578 286.087 571.784 285.293C571.255 284.764 571.142 284.235 570.991 283.479C570.915 282.987 570.65 282.685 570.65 282.156V279.85C570.65 279.359 570.083 279.132 569.63 278.981C568.912 278.717 568.383 278.83 567.816 278.301C566.757 277.356 566.833 276.26 566.002 275.126C565.661 274.635 565.17 274.521 564.641 274.219C562.789 273.085 561.013 272.669 560.332 270.591C560.106 269.872 559.803 269.532 559.652 268.776C559.274 266.773 559.274 265.564 558.518 263.674C558.102 262.616 557.876 261.935 557.271 260.953C556.893 260.31 556.213 260.348 555.457 260.159C554.739 260.008 554.398 259.592 553.605 259.592H550.506C550.052 259.592 549.901 259.176 549.561 258.912C548.88 258.421 548.502 258.005 547.86 257.438C547.709 257.324 547.709 257.06 547.52 256.984C547.066 256.72 546.688 256.909 546.159 256.871C545.365 256.795 545.101 256.039 544.912 255.283C544.647 254.074 544.647 253.356 544.572 252.109C542.72 252.109 541.888 250.748 540.036 250.748C539.091 250.748 538.524 251.088 537.542 251.088C537.164 251.088 536.899 251.013 536.635 250.748C536.37 250.483 536.483 249.841 536.068 249.841C535.614 249.841 535.274 249.803 534.934 250.068C534.443 250.446 534.443 251.013 534.027 251.428C533.611 251.844 533.195 252.033 532.666 252.222C531.646 252.638 531.041 252.827 529.945 253.016C529.34 253.091 529 253.356 528.32 253.356H525.561C524.843 253.356 524.427 253.167 523.709 253.129C522.008 253.016 521.063 252.978 519.4 252.562C518.228 252.26 517.661 251.693 516.679 250.975C516.339 250.71 516.036 250.635 515.772 250.295C515.394 249.803 515.318 249.312 514.865 248.934C514.449 248.594 514.033 248.707 513.504 248.48C512.446 247.989 512.786 246.402 511.69 246.099C511.387 246.024 511.085 246.061 510.783 245.986C509.876 245.721 509.422 245.306 508.515 244.965C506.663 244.285 505.529 244.172 503.526 243.945C502.997 243.869 502.694 243.718 502.128 243.718C501.107 243.718 500.238 243.718 499.444 243.68L499.595 243.718Z" stroke="black" stroke-width="0.377953"/>
    </g>
  <g id="Dhofar">
<path fill-rule="evenodd" clip-rule="evenodd" d="M317.384 790.616C317.082 790.616 316.969 790.918 316.817 791.183C316.515 791.674 316.25 792.052 315.91 792.543C316.78 793.035 317.384 793.337 318.405 793.337C319.047 793.337 319.425 793.072 319.992 792.77C319.917 792.619 320.106 792.392 319.992 792.317C319.728 792.052 319.312 792.052 319.085 791.75C318.858 791.485 319.009 791.032 318.745 790.843C318.48 790.654 318.178 790.767 317.838 790.729C317.649 790.729 317.573 790.616 317.384 790.616ZM334.014 786.647C332.54 787.139 331.935 788.084 330.386 788.348C328.761 788.613 328.08 790.049 326.417 790.049C326.38 790.389 326.304 790.616 326.304 790.956C326.304 791.409 326.682 791.523 326.984 791.863C327.362 792.279 327.627 792.77 328.231 792.77C328.874 792.77 329.176 792.392 329.819 792.317L332.54 792.997C334.694 792.279 336.131 791.825 337.643 790.162C337.454 790.087 337.378 789.86 337.189 789.822C336.282 789.633 335.035 789.746 335.035 788.802C335.035 788.537 335.261 788.424 335.261 788.121C335.261 787.592 335.186 787.214 334.921 786.761C334.846 786.609 334.165 786.723 334.014 786.647ZM246.858 573.217L250.411 573.18C251.809 573.066 251.923 573.104 252.981 573.746C253.813 574.238 254.682 576.09 254.228 577.148C253.624 578.546 253.661 580.285 254.266 581.646C254.493 582.175 254.531 582.553 254.946 583.044L319.614 687.548C318.972 689.173 318.291 689.929 317.044 691.025C315.192 692.688 312.622 693.142 312.887 696.128C313 697.375 314.625 703.271 315.608 703.838C315.986 704.065 316.364 704.48 317.006 704.632C317.535 704.783 318.254 705.198 319.047 705.161C321.806 705.085 324.943 704.329 327.589 703.535C330.008 702.817 332.654 704.594 331.406 705.463C330.121 706.332 327.589 706.295 326.984 708.411C326.644 709.583 329.819 709.809 330.613 709.658C333.372 709.167 334.354 709.772 335.602 712.228L359.98 751.649C359.602 752.254 359.413 752.707 359.299 753.463C359.148 754.332 359.337 755.202 358.619 755.731C358.09 756.146 357.523 755.958 356.805 755.958C355.746 755.958 354.991 755.958 354.083 755.391C353.403 754.975 353.063 754.37 352.231 754.37H350.039C349.321 754.37 348.943 753.992 348.187 753.917C346.789 753.765 345.995 753.576 344.559 753.576C343.312 753.576 342.858 754.786 341.611 754.937L339.797 754.71L335.261 755.391C334.165 755.013 333.712 754.257 332.54 754.257C332.087 754.257 331.86 754.446 331.406 754.484C329.819 754.672 328.874 754.521 327.324 754.824C326.568 754.975 326.153 755.428 325.624 755.958C325.321 756.26 325.321 756.676 324.943 756.865C324.187 757.318 323.545 757.432 322.638 757.432C320.71 757.432 319.652 757.318 317.724 757.318C316.666 757.318 316.024 756.978 314.965 756.978C312.509 756.978 311.148 756.865 308.691 756.865C307.973 756.865 307.557 757.205 306.839 757.318C304.383 757.696 302.984 757.923 300.49 758.112C298.335 758.301 297.164 758.603 295.047 759.132C294.178 759.321 293.649 759.397 292.78 759.586C290.965 760.039 289.945 760.455 288.244 761.173C286.959 761.702 286.128 762.005 285.069 762.874C284.276 763.554 284.011 764.121 283.482 765.028C282.991 765.86 282.499 766.313 282.348 767.296C282.159 768.506 282.461 769.224 282.461 770.471L282.008 770.584L281.101 770.358C281.063 770.509 280.874 770.622 280.874 770.811C280.874 771.416 281.214 771.756 281.214 772.398C281.214 772.852 281.252 773.268 280.874 773.532C280.572 773.721 280.269 773.721 279.967 773.986C279.4 774.477 279.249 775.12 278.606 775.573C277.321 776.518 276.603 777.463 275.318 778.408C274.524 779.013 273.844 779.164 273.05 779.769C272.521 780.146 272.332 780.6 271.803 781.016C270.027 782.565 269.006 783.548 267.835 785.551C267.343 786.383 267.041 786.912 266.701 787.819C266.398 788.65 266.02 789.18 266.02 790.087C266.02 790.843 266.436 791.183 266.701 791.901C267.003 792.732 266.776 793.413 267.268 794.169C267.797 794.924 268.515 795.113 269.422 795.416C269.951 795.567 270.405 795.567 270.783 795.983C271.387 796.625 271.274 797.381 271.463 798.25C271.652 799.309 272.143 799.876 272.143 800.972C272.143 802.068 271.652 802.672 271.236 803.693C270.896 804.524 270.783 805.091 270.443 805.961C269.951 807.246 269.535 807.926 268.855 809.135C268.628 809.513 268.288 809.778 268.288 810.269C268.288 811.706 269.309 812.461 269.309 813.898C269.309 814.956 268.439 815.447 267.608 816.052C266.739 816.695 266.361 817.261 265.794 818.206C265.34 818.962 264.698 819.151 264.206 819.907C263.639 820.814 263.677 821.532 263.413 822.628C261.75 822.628 260.729 822.931 259.331 823.876C258.499 824.443 258.424 825.274 257.857 826.143C257.29 826.975 257.139 827.655 256.383 828.411C256.043 828.751 255.74 828.789 255.362 829.091C254.304 829.923 253.624 830.452 252.754 831.472C251.809 832.531 251.28 833.438 249.92 833.74C248.899 833.929 248.068 833.362 247.198 833.967C247.047 834.043 247.123 834.345 246.972 834.421C246.367 834.874 245.838 834.912 245.157 835.328C244.477 835.706 244.099 836.008 243.343 836.235C243.041 836.31 242.739 836.348 242.436 836.461C242.096 836.613 241.945 837.028 241.529 837.028C241.302 837.028 241.265 836.764 241.076 836.688C240.735 836.537 240.509 836.386 240.169 836.235C239.677 836.915 239.526 837.52 238.808 837.935C237.636 838.654 236.616 838.389 235.18 838.389C234.083 838.389 233.441 838.691 232.458 839.183C231.74 839.561 231.287 840.09 230.417 840.09C230.115 840.09 230.002 839.787 229.737 839.636C228.717 839.032 228.225 838.276 227.016 838.276C226.222 838.276 226.222 839.523 225.428 839.523C225.05 839.523 224.861 839.221 224.521 839.069C223.803 838.767 223.387 838.578 222.707 838.162C222.027 837.784 221.346 837.746 220.893 837.142C220.591 836.764 220.742 836.31 220.553 835.781C220.175 834.647 219.797 834.043 219.079 833.06L214.543 832.153C211.142 832.115 209.252 832.039 205.85 832.039C204.15 832.039 203.205 832.493 201.504 832.493C199.274 832.493 198.065 831.586 195.835 831.586C194.323 831.586 193.491 832.002 191.98 832.153C191.186 832.228 190.694 832.304 189.939 832.38C187.142 832.758 185.517 832.871 182.682 833.173C181.661 833.287 181.094 833.438 180.074 833.513C177.882 833.665 176.635 834.043 174.518 834.421C173.838 834.534 173.384 834.496 172.704 834.647C172.137 834.761 171.759 835.025 171.23 835.214C170.739 835.365 170.361 835.365 169.869 835.554C169.34 835.743 169.038 836.046 168.509 836.235C167.299 836.688 166.543 836.915 165.22 836.915C165.145 837.406 165.183 837.746 165.183 838.238C165.183 838.427 165.107 838.502 165.107 838.729C165.183 839.372 165.561 839.674 165.561 840.317C165.561 841.148 164.502 841.148 163.746 841.45C163.217 841.677 162.915 841.98 162.386 842.244C161.365 842.735 160.723 842.962 159.665 843.378C159.06 843.605 158.72 843.832 158.077 843.832C157.132 843.832 156.565 843.605 155.583 843.605C154.676 843.605 154.184 843.983 153.315 844.285C151.614 844.89 150.594 844.965 148.78 845.192C148.213 845.23 147.948 845.57 147.419 845.646C146.701 845.797 146.247 845.835 145.491 845.986C145.189 846.061 144.887 846.024 144.584 846.099C144.168 846.213 144.093 846.666 143.791 847.006C143.299 847.611 142.846 847.951 142.09 848.14C141.712 849.765 140.351 849.992 139.142 851.088C138.877 851.353 138.688 851.58 138.461 851.882C138.235 852.222 137.857 852.373 137.781 852.789C137.668 853.243 137.63 853.696 137.214 853.923C136.269 854.414 135.513 854.263 134.493 854.603C132.83 855.132 131.923 855.737 130.298 856.531L124.061 855.51C122.361 855.51 121.416 855.737 119.753 856.077C119.186 856.191 118.846 856.455 118.279 856.531C115.482 857.022 113.819 857.438 111.022 857.891C108.528 858.269 107.054 858.572 104.672 859.365C104.143 859.517 103.841 859.743 103.312 859.932C102.291 860.272 101.611 860.272 100.591 860.613C99.5323 860.953 98.9276 861.217 97.8693 861.52C96.9622 861.784 96.4709 862.124 95.6016 862.54C95.0724 862.767 94.6567 862.805 94.1275 862.994C93.9386 863.069 93.863 863.258 93.674 863.334C92.8425 863.674 92.2756 863.712 91.4063 864.014C90.9905 864.165 90.6504 864.317 90.3102 864.468L0.62204 661.205L246.443 573.369L246.858 573.217Z" stroke="black" stroke-width="0.377953"/>
    </g>
  <g id="Al Wusta">
<path fill-rule="evenodd" clip-rule="evenodd" d="M568.156 512.443C567.438 512.556 567.06 512.556 566.342 512.556C566.342 514.03 566.115 514.899 565.661 516.298C565.283 517.545 565.057 518.376 564.301 519.472C563.243 520.909 562.298 521.438 561.239 522.874C560.748 523.517 560.521 523.97 560.105 524.688C559.161 526.313 558.707 527.372 558.405 529.224C558.178 530.849 558.329 531.869 557.838 533.419C557.687 533.948 557.46 534.25 557.157 534.78C556.78 535.498 556.591 536.102 555.91 536.594C555.797 536.669 555.608 536.669 555.457 536.707C555.192 536.216 555.079 535.838 554.776 535.346C554.587 535.006 554.398 534.553 553.983 534.553C553.378 534.553 553.113 535.12 552.735 535.573C552.206 536.178 551.904 536.669 551.488 537.387C550.657 538.748 549.787 539.315 548.654 540.449C547.746 541.356 547.331 541.998 546.613 543.057C545.894 544.153 545.365 544.909 545.365 546.232C545.365 546.95 545.29 547.29 545.29 548.008C545.29 548.197 545.479 548.272 545.479 548.499C545.517 550.2 545.29 551.183 545.29 552.883C545.29 553.488 545.101 553.904 545.252 554.509C545.479 555.454 545.932 555.832 546.159 556.776C546.348 557.457 546.31 557.948 546.499 558.591C546.65 559.006 546.726 559.498 547.18 559.498C547.822 559.498 548.124 559.006 548.54 558.477C549.183 557.646 549.674 557.192 550.581 556.663C551.11 556.361 551.413 555.945 551.942 555.643C552.622 555.227 553.151 555.038 553.756 554.509C554.587 553.791 554.247 552.657 555.117 551.901C555.381 551.674 555.721 551.712 556.024 551.561C556.515 551.296 556.817 550.994 557.271 550.654C557.384 550.578 557.611 550.616 557.724 550.54C557.876 550.465 557.8 550.162 557.951 550.087C558.216 549.898 558.745 549.898 558.745 549.52C558.745 549.142 558.405 548.991 558.405 548.613C558.405 548.008 558.972 547.781 559.425 547.365C560.03 546.836 560.446 546.345 560.559 545.551C560.71 544.531 560.332 543.888 560.446 542.83C560.597 541.469 561.542 540.978 561.92 539.655C562.184 538.635 561.957 537.879 562.487 536.934C562.676 536.556 563.054 536.405 563.28 536.027C563.734 535.346 563.998 534.817 564.754 534.439C565.246 534.175 565.624 534.099 566.115 533.872C566.833 533.532 567.249 533.23 567.929 532.852C569.063 532.247 569.441 531.416 570.65 530.924C571.671 530.509 572.805 530.093 572.805 528.997C572.805 528.619 572.54 528.43 572.351 528.09C572.011 527.409 571.671 527.032 571.671 526.238V523.592C571.671 523.025 571.595 522.609 571.217 522.194C570.688 521.589 569.932 521.665 569.403 521.06C568.95 520.569 569.063 519.964 569.063 519.246C569.063 517.28 569.63 516.222 569.63 514.257C569.63 513.539 569.554 512.972 569.063 512.443C568.95 512.329 568.307 512.48 568.156 512.443ZM359.904 751.687C360.282 751.044 360.962 750.855 361.491 750.326C362.247 749.57 362.776 749.154 363.646 748.512C364.137 748.172 364.628 748.058 365.006 747.605C365.195 747.34 365.157 747 365.233 746.698C365.687 745.072 366.858 744.619 368.068 743.409C368.824 742.654 369.202 742.124 370.109 741.482C371.394 740.65 372.187 740.197 373.283 739.101C373.661 738.723 374.002 738.383 374.531 738.194C375.173 737.929 376.005 737.778 376.005 737.06C376.005 736.002 376.043 735.321 375.778 734.339C375.438 733.129 374.871 732.449 374.871 731.164C374.871 730.975 375.06 730.899 375.098 730.71C375.362 729.765 375.929 729.312 376.458 728.443C377.176 727.271 377.29 726.402 378.046 725.268C378.499 724.587 379.104 724.323 379.406 723.567C379.746 722.735 379.671 722.169 379.973 721.299C380.162 720.657 380.313 720.203 380.313 719.485C380.313 717.444 380.427 716.386 380.427 714.345C380.427 713.589 380.994 713.211 381.334 712.569C381.939 711.472 382.581 710.792 382.581 709.507C382.581 708.562 382.317 707.995 382.354 707.013C382.43 705.765 382.581 705.047 382.354 703.838C382.279 703.309 381.901 703.044 381.901 702.477C381.901 701.532 382.505 701.117 382.694 700.209C382.846 699.378 382.317 698.735 382.694 697.942C382.846 697.564 383.186 697.413 383.488 697.148C383.98 696.694 384.32 696.317 384.849 695.901C385 695.787 385.151 695.787 385.302 695.674C386.172 694.956 386.209 694.049 387.117 693.406C387.608 693.066 388.061 693.028 388.477 692.613C389.195 691.932 389.195 691.176 389.611 690.232C390.102 689.06 390.783 688.569 391.652 687.624C392.824 686.339 393.202 685.243 394.6 684.222C395.961 683.202 396.981 682.748 398.228 681.614C398.682 681.236 398.946 680.858 399.476 680.594C399.967 680.367 400.345 680.291 400.836 680.027C401.403 679.724 401.668 679.309 402.197 679.006C404.465 677.608 406.014 677.23 408.546 676.398C409.227 676.172 409.718 676.134 410.361 675.832C411.721 675.151 412.553 674.849 413.989 674.357C415.047 674.017 415.614 673.715 416.71 673.45C417.542 673.261 418.146 673.337 418.978 673.11C420.943 672.543 422.039 672.014 423.967 671.296C425.139 670.88 425.932 670.805 427.142 670.616C428.389 670.427 429.069 669.898 430.317 669.709C431.602 669.52 432.395 669.52 433.718 669.369C434.625 669.255 435.117 668.991 435.986 668.802C436.477 668.688 436.817 668.764 437.346 668.688C438.405 668.537 438.972 668.121 440.068 668.008C441.353 667.857 442.071 667.97 443.356 667.895C444.225 667.819 444.754 667.63 445.624 667.554C447.929 667.403 449.214 667.403 451.52 667.214C452.238 667.139 452.654 666.987 453.372 666.987C455.526 666.987 456.698 666.874 458.852 666.874C460.704 666.874 461.762 667.328 463.652 667.328C465.164 667.328 466.033 666.987 467.545 666.987H470.191C471.173 666.987 471.665 666.383 472.496 665.854C472.987 665.551 473.328 665.4 473.857 665.173C474.877 664.72 475.482 664.38 476.578 664.153C477.258 664.002 477.674 663.888 478.392 663.813C478.921 663.737 479.261 663.85 479.753 663.699C480.357 663.472 480.471 662.83 480.887 662.339C481.529 661.62 482.096 661.205 482.474 660.298C481.416 659.882 480.735 659.239 480.32 658.143C480.168 657.652 480.395 657.312 480.206 656.783C480.055 656.216 479.45 656.065 479.186 655.535C479.11 655.384 479.224 655.233 479.186 655.082C478.846 654.061 478.505 653.457 478.505 652.361C478.505 651.113 478.657 650.395 478.959 649.186C479.035 648.883 479.186 648.619 479.186 648.279C479.186 647.674 478.657 647.485 478.279 647.032C478.052 646.767 477.939 646.427 477.712 646.124C477.031 645.293 476.238 645.142 475.671 644.197C475.406 643.706 475.066 643.403 474.991 642.836C474.839 642.005 475.18 641.4 474.877 640.569C474.802 640.417 474.726 640.304 474.65 640.115C474.575 639.964 474.272 640.115 474.197 640.002C474.046 639.775 474.386 639.624 474.386 639.321C474.386 639.208 474.197 639.208 474.197 639.095C474.197 638.565 474.31 638.263 474.424 637.734C474.537 636.184 474.575 635.088 474.575 633.501C474.575 633.35 474.764 633.236 474.764 633.085C474.877 631.989 474.991 631.346 475.217 630.25C475.293 629.948 475.444 629.721 475.444 629.381V626.622C475.444 625.337 474.953 624.657 474.537 623.485C473.932 621.784 473.214 620.953 472.269 619.403C471.513 618.156 471.362 617.211 471.135 615.775C470.946 614.641 470.568 613.998 470.568 612.827L471.362 606.477C471.211 605.117 471.211 604.323 471.135 602.962C471.098 602.055 470.984 601.564 470.682 600.695C470.417 599.939 470.002 599.485 470.002 598.654C470.002 595.932 471.173 594.534 472.383 592.077C472.761 591.283 472.647 590.603 473.063 589.809C473.252 589.432 473.743 589.394 473.97 589.016C474.688 587.882 474.991 587.126 475.444 585.841C475.86 584.669 476.313 583.951 476.351 582.666C476.389 581.381 477.409 580.814 477.372 579.491C477.296 577.413 478.43 576.392 479.186 574.502C479.45 573.86 479.299 573.406 479.413 572.688C479.602 572.726 479.639 573.028 479.866 573.028C480.131 573.028 480.244 572.802 480.433 572.688C480.244 571.403 480.433 570.723 480.433 569.438C480.433 568.191 480.206 567.472 480.433 566.225C480.698 564.827 481.113 563.995 481.454 562.597C481.491 562.446 481.68 562.332 481.68 562.143C481.68 561.387 480.811 561.35 480.206 560.896C479.564 560.405 479.299 559.8 479.299 558.969C479.299 557.948 479.866 557.419 480.206 556.474C480.471 555.794 480.282 555.227 480.773 554.66C481.151 554.206 481.718 554.395 482.134 553.98C482.361 553.753 482.285 553.375 482.361 553.072C482.512 552.317 482.739 551.787 483.268 551.258C484.213 550.313 485.12 550.087 486.443 549.671C487.954 548.575 488.635 546.609 490.562 546.609C490.902 546.609 491.091 546.685 491.431 546.723C491.696 545.627 491.583 544.871 492.112 543.888C492.301 543.586 492.679 543.472 492.679 543.095C492.679 542.339 491.961 542.036 491.318 541.62C490.487 541.054 489.731 540.524 489.731 539.466C489.731 538.332 490.562 537.69 491.545 537.198C492.414 536.783 492.905 536.48 493.813 536.065C495.022 535.535 495.702 535.006 496.987 534.591C497.857 534.326 498.461 534.213 499.255 533.797C500.994 532.852 500.767 531 501.183 529.035C501.372 527.976 501.409 527.334 501.75 526.313C501.901 525.784 502.09 525.482 502.317 524.953C502.505 524.461 502.694 523.932 503.261 523.932H505.907C506.436 523.932 506.739 524.159 507.305 524.159C508.099 524.159 509.12 524.046 509.12 523.252C509.12 522.761 508.893 522.458 508.553 522.118C508.402 521.967 508.213 522.08 508.099 521.891C508.024 521.74 508.137 521.589 508.099 521.438C508.591 521.249 508.931 521.173 509.46 520.984C509.838 520.871 509.989 520.644 510.405 520.644H512.597C513.315 520.644 513.768 520.569 514.449 520.757C514.827 520.833 515.356 520.909 515.356 521.324C515.356 522.761 514.789 523.592 514.335 524.953C513.844 526.465 513.617 527.409 513.088 528.921C512.597 530.32 512.181 531.113 511.841 532.55C511.614 533.495 511.35 534.024 510.82 534.817C510.367 535.535 509.8 535.989 509.8 536.858C509.8 537.501 510.48 537.69 511.047 537.992C511.236 538.068 511.312 538.332 511.501 538.446C512.294 538.975 512.824 539.239 513.768 539.466C514.713 539.693 515.507 539.844 515.923 540.713C516.301 541.545 516.452 542.641 517.397 542.641C518.191 542.641 518.493 542.036 519.211 541.734C519.854 541.469 520.383 541.469 521.025 541.28C521.781 541.016 522.235 540.6 523.066 540.6C523.973 540.6 524.313 541.318 525.107 541.734C525.598 541.961 525.976 541.885 526.468 542.074C526.846 542.187 527.035 542.49 527.375 542.641C527.866 542.83 528.206 542.792 528.735 542.868C529.265 542.943 529.567 543.095 530.096 543.095C532.364 543.095 533.271 541.28 534.745 539.58C535.123 539.088 535.236 538.597 535.765 538.219C536.257 537.879 536.786 537.841 537.126 537.312C537.731 536.367 537.844 535.687 538.26 534.591C538.524 533.872 538.751 533.495 538.94 532.776C539.545 530.735 539.318 529.337 540.074 527.334C540.603 525.898 541.094 525.104 541.775 523.706C542.417 522.383 542.493 521.476 543.022 520.077C543.513 518.792 544.005 518.112 544.609 516.902C545.101 515.882 544.874 514.937 545.743 514.181C546.235 513.765 546.65 513.69 547.217 513.387C548.087 512.896 548.578 512.48 549.485 512.027C550.354 511.611 551.072 511.46 551.753 510.78C552.017 510.515 552.093 510.175 552.32 509.872C553.076 508.928 553.983 508.928 554.928 508.172C555.872 507.454 555.948 506.433 555.948 505.224C555.948 504.581 555.721 504.241 555.494 503.636C555.343 503.674 555.192 503.598 555.041 503.636C554.134 503.976 553.756 504.732 552.773 504.883C553.038 504.354 553.076 503.939 553.454 503.523C553.718 503.258 554.058 503.183 554.361 502.956C554.852 502.578 555.079 502.124 555.381 501.595C556.25 500.197 556.061 499.063 556.628 497.513C557.157 496.077 557.271 495.019 558.329 493.885C559.161 492.94 559.803 492.411 560.71 491.504C561.088 491.126 561.617 490.861 561.617 490.257C561.617 489.501 561.504 489.047 561.277 488.329C561.202 487.989 560.937 487.8 560.937 487.422C560.937 487.12 561.013 486.855 561.126 486.628H549.258C547.973 486.061 549.485 483.756 547.746 482.357C546.688 481.526 546.272 481.866 545.328 481.904C544.156 481.942 546.159 476.991 546.31 476.348C546.839 473.929 548.238 471.813 548.616 469.583C548.843 468.298 548.729 467.806 549.069 466.446L540.603 459.869C540.187 459.643 539.696 459.34 539.28 459.076C537.126 457.753 534.216 456.506 532.288 454.994C531.343 454.238 530.096 453.104 529.189 452.461C528.244 451.781 526.543 450.685 525.787 449.816C525.069 449.022 521.139 445.583 520.307 445.129C518.304 444.033 517.359 443.05 515.998 445.772C514.827 448.191 517.057 448.569 513.995 449.589C511.917 450.269 510.065 450.269 508.364 450.836C505.454 451.781 502.392 452.31 499.557 453.482L500.124 459.189C500.162 459.416 500.427 461.268 500.502 461.457C501.183 463.876 501.372 467.315 500.578 469.734C500.389 470.339 498.159 473.362 497.743 473.816C496.458 475.214 495.627 478.465 495.4 480.317C495.287 481.186 495.362 483.529 495.513 484.361C496.194 487.46 495.816 490.521 495.249 493.62L486.556 492.373L426.31 481.261C425.857 481.148 425.403 481.035 424.95 480.846C422.833 480.128 420.754 478.956 418.562 478.087C417.391 477.633 414.82 476.499 413.762 475.932C411.948 474.912 410.285 474.194 408.433 473.287C406.354 472.304 404.011 470.981 401.932 470.112C400.118 469.356 398.606 468.524 396.83 467.844C395.583 467.353 393.315 465.992 392.408 465.728C389.724 465.009 389.006 464.216 386.02 464.216C383.224 464.216 381.712 462.439 380.389 460.134C379.784 459.076 379.217 458.924 378.575 458.244C377.781 457.375 376.798 457.261 376.043 456.883C374.531 456.09 375.022 457.261 373.813 454.994L378.613 440.291L284.994 452.575L247.236 572.839L250.789 572.802C252.187 572.688 252.301 572.726 253.359 573.369C254.191 573.86 255.06 575.712 254.606 576.77C254.002 578.169 254.039 579.907 254.644 581.268C254.871 581.797 254.909 582.175 255.324 582.666L319.992 687.17C319.35 688.795 318.669 689.551 317.422 690.647C315.57 692.31 313 692.764 313.265 695.75C313.378 696.997 315.003 702.893 315.986 703.46C316.364 703.687 316.742 704.102 317.384 704.254C317.913 704.405 318.631 704.82 319.425 704.783C322.184 704.707 325.321 703.951 327.967 703.157C330.386 702.439 333.031 704.216 331.784 705.085C330.499 705.954 327.967 705.917 327.362 708.033C327.022 709.205 330.197 709.432 330.991 709.28C333.75 708.789 334.732 709.394 335.98 711.85L360.357 751.271L359.904 751.687Z" stroke="black" stroke-width="0.377953"/>
    </g>
  <g id="Musandam">
<path fill-rule="evenodd" clip-rule="evenodd" d="M337.302 29.5323C338.55 29.6079 339.268 29.7591 340.515 29.7591C341.384 29.7591 341.876 29.7969 342.745 29.6457C342.972 30.2504 343.009 30.704 343.085 31.3465C343.161 31.8756 343.463 32.178 343.652 32.7071C343.879 33.3496 343.879 33.8032 343.879 34.5213C343.879 35.126 343.539 35.4662 343.539 36.1087C343.539 37.0536 343.879 37.5449 343.879 38.4898C343.879 39.6614 343.236 40.2284 343.085 41.4378C343.009 42.3071 343.123 42.8362 342.972 43.7055C342.82 44.5748 342.556 45.104 342.405 45.9732C341.951 48.7323 341.157 50.2441 341.157 53.041C341.157 53.8725 341.006 54.3638 341.271 55.1197C341.611 56.0646 342.178 56.5937 342.178 57.6142C342.178 58.7858 341.724 59.4662 341.724 60.6378V62.9433C341.724 63.6614 342.027 64.0394 342.178 64.7197C342.443 66.1937 342.178 67.3654 343.085 68.5748C343.501 69.1417 344.068 69.2551 344.446 69.8221C345.277 71.1071 346.071 72.3165 347.62 72.3165C348.339 72.3165 348.754 72.0898 349.472 72.0898H352.156L352.836 71.6362C352.987 70.578 352.836 69.9732 352.836 68.8772C352.836 68.0079 352.761 67.4788 353.063 66.6473C353.214 66.1559 353.63 65.8536 353.63 65.2866C353.63 64.9087 353.063 64.8709 353.063 64.4929C353.063 64.115 353.403 63.9638 353.517 63.5858C353.781 62.9055 353.894 62.452 354.083 61.7717C354.159 61.4693 354.083 61.0914 354.31 60.8646C354.537 60.6378 354.915 60.7512 355.217 60.6378C355.784 60.4488 356.162 60.1465 356.578 59.7307C357.334 58.9748 357.863 58.4457 358.506 57.5764C358.997 56.9717 358.997 56.3669 359.413 55.6488C359.942 54.7795 360.395 54.326 360.773 53.3811C361.038 52.663 361.416 52.2473 361.794 51.5669C362.663 49.904 363.154 48.8835 363.608 47.0315C363.759 46.3134 364.024 45.9354 364.288 45.2173C364.439 44.726 364.364 44.3858 364.515 43.8567C364.704 43.252 365.422 43.2898 365.989 42.9496C366.518 42.6095 366.707 42.1937 367.123 41.7024C366.594 41.5134 366.102 41.4756 365.762 41.0221C365.573 40.7575 365.573 40.4173 365.535 40.115C365.384 39.4347 365.195 39.0189 365.195 38.3008C365.195 37.2425 365.535 36.6378 365.535 35.5795C365.535 35.2394 365.498 34.9748 365.422 34.6725C365.309 34.2567 364.742 34.2189 364.742 33.7654C364.742 32.5937 365.8 32.2158 366.443 31.2709C366.745 30.8173 366.745 30.4016 367.009 29.9102C367.387 29.1543 368.597 29.1921 368.597 28.3228C368.597 27.5669 367.728 27.378 367.009 27.189C365.838 26.8488 365.006 26.9244 363.835 26.5087C362.89 26.1685 362.587 25.4504 361.907 24.6945C361.265 23.9764 360.546 23.674 360.206 22.7669C360.131 22.578 359.866 22.5402 359.866 22.3134C359.866 22.0866 360.169 22.0488 360.206 21.8599H361.113C361.378 22.0866 361.529 22.4268 361.907 22.4268C362.361 22.4268 362.361 21.7465 362.814 21.7465C363.608 21.7465 363.608 22.6914 364.061 23.3339C364.553 24.0142 365.233 24.241 366.102 24.241C366.934 24.241 367.35 23.7496 368.181 23.7496C368.672 23.7496 369.013 23.8252 369.504 23.7496C369.428 23.2583 369.617 22.9181 369.391 22.4646C369.126 21.9732 368.824 21.6331 368.597 21.104C368.446 20.8016 368.483 20.4614 368.257 20.1969C368.181 20.0835 367.917 20.1591 367.803 20.0835C367.463 19.8189 367.312 19.5921 367.123 19.1764C367.614 19.063 367.765 18.7228 368.257 18.7228C368.521 18.7228 368.521 19.1764 368.824 19.1764C369.05 19.1764 369.088 18.874 369.277 18.8362C369.58 18.7606 369.882 18.6851 370.184 18.6095C370.109 18.0803 370.109 17.778 369.957 17.2488C369.769 16.6441 369.277 16.304 369.277 15.6614C369.277 15.2079 369.504 14.9811 369.504 14.5276C369.504 14.1496 368.937 14.1496 368.597 13.9606C368.106 13.6961 367.765 13.4315 367.236 13.1669C366.858 13.8473 366.783 14.3386 366.556 15.0945C366.027 14.8299 365.573 14.8677 365.195 14.4142C364.855 13.9984 365.157 13.4693 364.742 13.0536C364.364 12.6756 363.91 12.7134 363.381 12.6C363.532 10.8992 364.477 9.84096 365.989 9.08505C366.48 8.82049 366.858 8.7449 367.35 8.40474C368.219 7.80001 368.861 7.15749 369.957 7.15749C370.146 7.15749 370.222 7.34647 370.411 7.38427L372.225 6.93072C372.036 6.25041 371.961 5.83466 371.885 5.11655C371.885 4.92757 371.658 4.85198 371.658 4.66301C371.658 4.20946 372.074 4.09608 372.339 3.75592C372.83 3.1134 373.283 2.77324 374.039 2.50867C374.002 2.35749 374.115 2.16852 374.039 2.05513C373.548 1.45041 373.17 1.03466 372.565 0.581116C372.565 1.4882 372.717 2.20631 372.112 2.84883C371.847 3.1134 371.507 3.22679 371.205 3.41576C370.827 3.68033 370.562 3.98269 370.033 3.98269C369.542 3.98269 369.315 3.9071 368.824 3.8693C368.824 4.66301 368.483 5.57009 367.69 5.57009C367.463 5.57009 367.576 5.11655 367.35 5.11655C367.085 5.11655 366.972 5.34332 366.669 5.34332C366.065 5.34332 365.951 4.62521 365.649 4.09608C365.573 3.9449 365.573 3.71812 365.422 3.64253C365.157 3.49135 364.817 3.83151 364.515 3.64253C364.364 3.56694 364.515 3.30238 364.402 3.18899C364.288 3.0756 364.099 3.1134 363.948 2.96222C363.646 2.65986 363.646 2.24411 363.268 2.05513C362.776 1.79056 362.436 1.75277 361.907 1.60159C361.416 1.45041 361.076 1.26143 360.546 1.26143C360.169 1.26143 360.169 1.71497 359.866 1.94175C359.413 2.2819 358.846 2.2819 358.506 2.73545C358.165 3.15119 358.165 3.56694 358.052 4.09608C357.901 4.77639 358.052 5.19214 358.052 5.91025C358.052 6.43938 357.901 6.81734 357.485 7.15749C357.183 7.42206 356.578 7.38427 356.578 7.83781C356.578 8.29135 356.918 8.51812 356.918 8.97167C356.918 9.72757 356.087 9.91655 355.444 10.3323C355.671 10.8992 355.784 11.2772 355.784 11.9197C355.784 13.1291 355.595 13.9984 354.764 14.8677C353.781 15.926 352.609 15.8126 351.135 16.0016C350.606 16.0394 350.304 16.3417 349.775 16.3417C348.717 16.3417 348.225 15.3213 347.961 14.3008C347.809 13.5827 347.658 13.1291 347.28 12.4866C346.373 12.9402 346.109 13.6205 345.693 14.5276C345.466 15.0945 345.05 15.3213 344.786 15.8882C344.408 16.7197 344.257 17.2866 343.992 18.1559C343.614 19.5543 343.652 20.5748 342.858 21.7843C342.518 22.2756 342.027 22.389 341.498 22.6914C339.986 23.6362 339.457 24.8079 338.663 26.4331C338.398 26.9622 338.172 27.3024 337.983 27.9071C337.794 28.5496 337.567 29.0032 337.302 29.4945V29.5323ZM352.685 94.9559C352.534 95.6362 352.534 96.1276 352.345 96.7701C352.232 97.148 352.194 97.4882 351.891 97.6772C351.476 97.9417 351.06 97.5638 350.493 97.5638H348.376C348.376 99.2268 348.868 100.285 348.376 101.872C348.981 101.646 349.246 101.306 349.85 101.079C350.682 100.739 351.211 100.739 352.118 100.625C353.403 100.474 354.159 100.285 355.444 100.285C355.444 98.6977 355.709 97.7906 355.52 96.2032C354.461 96.2032 353.592 95.4851 352.685 94.9559Z" stroke="black" stroke-width="0.377953"/>
    </g>
</svg>
